# xmcd
#
# Track frame offsets:
# 150
# 13689
# 26183
# 38959
# 51253
# 64251
# 76755
# 85382
# 97387
# 109317
# 121523
# 131627
# 147125
# 160295
# 173548
# 187500
# 202273
# 216977
# 241462
# 251805
#
# Disc length: 3530 seconds
#
#
# Revision: 5
# Processed by: cddbd v1.5.2PL0 Copyright (c) Steve Scherf et al.
# Submitted via: FreeRIP 2.945 
#
DISCID=200dc814
DTITLE=Bobby Bare - The Essential
DYEAR=1997
DGENRE=Country
TTITLE0=All American Boy
TTITLE1=Shame On Me
TTITLE2=Detroit City
TTITLE3=500 Miles Away From Home
TTITLE4=Miller's Cave
TTITLE5=Four Strong Winds
TTITLE6=A Dear John Letter
TTITLE7=It's All Right
TTITLE8=The Streets Of Baltimore
TTITLE9=The Game Of Triangles
TTITLE10=Charleston Railroad Tavern
TTITLE11=Margie's At The Lincoln Park Inn
TTITLE12=Bless America Again
TTITLE13=Your Husband My Wife
TTITLE14=Ride Me Down Easy
TTITLE15=Daddy What If
TTITLE16=Marie Laveau
TTITLE17=The Winner
TTITLE18=Dropkick Me, Jesus
TTITLE19=Vegas
EXTD=BMG Music
EXTT0=
EXTT1=
EXTT2=
EXTT3=
EXTT4=
EXTT5=
EXTT6=
EXTT7=
EXTT8=
EXTT9=
EXTT10=
EXTT11=
EXTT12=
EXTT13=
EXTT14=
EXTT15=
EXTT16=
EXTT17=
EXTT18=
EXTT19=
PLAYORDER=
